{
	"asset":{
		"generator":"Khronos glTF Blender I/O v4.1.63",
		"version":"2.0"
	},
	"extensionsUsed":[
		"KHR_materials_specular",
		"KHR_materials_unlit"
	],
	"scene":0,
	"scenes":[
		{
			"name":"Scene",
			"nodes":[
				0
			]
		}
	],
	"nodes":[
		{
			"mesh":0,
			"name":"10120_LCD_Computer_Monitor_v01_max2011_it2",
			"scale":[
				0.33935463428497314,
				0.33935463428497314,
				0.33935463428497314
			],
			"translation":[
				0,
				-6.835618495941162,
				0
			]
		}
	],
	"materials":[
		{
			"doubleSided":true,
			"extensions":{
				"KHR_materials_specular":{
					"specularFactor":0
				}
			},
			"name":"TV",
			"pbrMetallicRoughness":{
				"baseColorFactor":[
					0.11972691118717194,
					0.11972691118717194,
					0.11972691118717194,
					1
				],
				"metallicFactor":0
			}
		},
		{
			"doubleSided":true,
			"name":"Backdrop",
			"pbrMetallicRoughness":{
				"baseColorFactor":[
					0,
					0,
					0,
					1
				],
				"metallicFactor":0,
				"roughnessFactor":0.5
			}
		},
		{
			"doubleSided":true,
			"extensions":{
				"KHR_materials_unlit":{}
			},
			"name":"Screen",
			"pbrMetallicRoughness":{
				"metallicFactor":0,
				"roughnessFactor":0.9
			}
		}
	],
	"meshes":[
		{
			"name":"10120_LCD_Computer_Monitor_v01_max2011_it2.001",
			"primitives":[
				{
					"attributes":{
						"POSITION":0,
						"NORMAL":1,
						"TEXCOORD_0":2
					},
					"indices":3,
					"material":0
				},
				{
					"attributes":{
						"POSITION":4,
						"NORMAL":5,
						"TEXCOORD_0":6
					},
					"indices":7,
					"material":1
				},
				{
					"attributes":{
						"POSITION":8,
						"NORMAL":9,
						"TEXCOORD_0":10
					},
					"indices":11,
					"material":2
				}
			]
		}
	],
	"accessors":[
		{
			"bufferView":0,
			"componentType":5126,
			"count":2684,
			"max":[
				21.951000213623047,
				35.88410186767578,
				3.9382998943328857
			],
			"min":[
				-21.951000213623047,
				-0.013899999670684338,
				-9.365799903869629
			],
			"type":"VEC3"
		},
		{
			"bufferView":1,
			"componentType":5126,
			"count":2684,
			"type":"VEC3"
		},
		{
			"bufferView":2,
			"componentType":5126,
			"count":2684,
			"type":"VEC2"
		},
		{
			"bufferView":3,
			"componentType":5123,
			"count":11568,
			"type":"SCALAR"
		},
		{
			"bufferView":4,
			"componentType":5126,
			"count":77,
			"max":[
				17.94118309020996,
				31.698209762573242,
				-1.1152548789978027
			],
			"min":[
				-19.054319381713867,
				10.664560317993164,
				-1.2303131818771362
			],
			"type":"VEC3"
		},
		{
			"bufferView":5,
			"componentType":5126,
			"count":77,
			"type":"VEC3"
		},
		{
			"bufferView":6,
			"componentType":5126,
			"count":77,
			"type":"VEC2"
		},
		{
			"bufferView":7,
			"componentType":5123,
			"count":336,
			"type":"SCALAR"
		},
		{
			"bufferView":8,
			"componentType":5126,
			"count":4,
			"max":[
				19.776397705078125,
				32.24169921875,
				-0.9421868324279785
			],
			"min":[
				-19.776397705078125,
				10.230094909667969,
				-0.942190408706665
			],
			"type":"VEC3"
		},
		{
			"bufferView":9,
			"componentType":5126,
			"count":4,
			"type":"VEC3"
		},
		{
			"bufferView":10,
			"componentType":5126,
			"count":4,
			"type":"VEC2"
		},
		{
			"bufferView":11,
			"componentType":5123,
			"count":6,
			"type":"SCALAR"
		}
	],
	"bufferViews":[
		{
			"buffer":0,
			"byteLength":32208,
			"byteOffset":0,
			"target":34962
		},
		{
			"buffer":0,
			"byteLength":32208,
			"byteOffset":32208,
			"target":34962
		},
		{
			"buffer":0,
			"byteLength":21472,
			"byteOffset":64416,
			"target":34962
		},
		{
			"buffer":0,
			"byteLength":23136,
			"byteOffset":85888,
			"target":34963
		},
		{
			"buffer":0,
			"byteLength":924,
			"byteOffset":109024,
			"target":34962
		},
		{
			"buffer":0,
			"byteLength":924,
			"byteOffset":109948,
			"target":34962
		},
		{
			"buffer":0,
			"byteLength":616,
			"byteOffset":110872,
			"target":34962
		},
		{
			"buffer":0,
			"byteLength":672,
			"byteOffset":111488,
			"target":34963
		},
		{
			"buffer":0,
			"byteLength":48,
			"byteOffset":112160,
			"target":34962
		},
		{
			"buffer":0,
			"byteLength":48,
			"byteOffset":112208,
			"target":34962
		},
		{
			"buffer":0,
			"byteLength":32,
			"byteOffset":112256,
			"target":34962
		},
		{
			"buffer":0,
			"byteLength":12,
			"byteOffset":112288,
			"target":34963
		}
	],
	"buffers":[
		{
			"byteLength":112300,
			"uri":"tv.bin"
		}
	]
}
